<?xml version="1.0" encoding="UTF-8" standalone="no"?>
<!-- Created with Inkscape (http://www.inkscape.org/) -->

<svg
   version="1.1"
   id="svg18"
   width="274.09473"
   height="54.833374"
   viewBox="0 0 274.09473 54.833374"
   sodipodi:docname="Bridge care.ai"
   xmlns:inkscape="http://www.inkscape.org/namespaces/inkscape"
   xmlns:sodipodi="http://sodipodi.sourceforge.net/DTD/sodipodi-0.dtd"
   xmlns="http://www.w3.org/2000/svg"
   xmlns:svg="http://www.w3.org/2000/svg">
  <defs
     id="defs22">
    <clipPath
       clipPathUnits="userSpaceOnUse"
       id="clipPath1822">
      <path
         d="M 0,1080 H 1920 V 0 H 0 Z"
         id="path1820" />
    </clipPath>
  </defs>
  <sodipodi:namedview
     id="namedview20"
     pagecolor="#ffffff"
     bordercolor="#000000"
     borderopacity="0.25"
     inkscape:showpageshadow="2"
     inkscape:pageopacity="0.0"
     inkscape:pagecheckerboard="0"
     inkscape:deskcolor="#d1d1d1"
     showgrid="false" />
  <g
     id="g1810"
     inkscape:groupmode="layer"
     inkscape:label="Page 4"
     transform="matrix(1.3333333,0,0,-1.3333333,-2080.5723,540.31708)">
    <g
       id="g1816">
      <g
         id="g1818"
         clip-path="url(#clipPath1822)">
        <g
           id="g3272"
           transform="translate(1601.5566,384.6758)"
           inkscape:export-filename="../8d80c77a/SDADSAS.svg"
           inkscape:export-xdpi="96"
           inkscape:export-ydpi="96">
          <path
             d="m 0,0 c 0,-11.357 -9.206,-20.563 -20.562,-20.563 -11.358,0 -20.565,9.206 -20.565,20.563 0,11.355 9.207,20.562 20.565,20.562 C -9.206,20.562 0,11.355 0,0"
             style="fill:#ffffff;fill-opacity:1;fill-rule:nonzero;stroke:none"
             id="path3274" />
        </g>
        <g
           id="g3276"
           transform="translate(1657.7783,384.6758)">
          <path
             d="m 0,0 c 0,-11.357 -9.206,-20.563 -20.562,-20.563 -11.358,0 -20.564,9.206 -20.564,20.563 0,11.355 9.206,20.562 20.564,20.562 C -9.206,20.562 0,11.355 0,0"
             style="fill:#ffffff;fill-opacity:1;fill-rule:nonzero;stroke:none"
             id="path3278" />
        </g>
        <g
           id="g3280"
           transform="translate(1711.8896,384.6758)">
          <path
             d="m 0,0 c 0,-11.357 -9.207,-20.563 -20.564,-20.563 -11.356,0 -20.563,9.206 -20.563,20.563 0,11.355 9.207,20.562 20.563,20.562 C -9.207,20.562 0,11.355 0,0"
             style="fill:#ffffff;fill-opacity:1;fill-rule:nonzero;stroke:none"
             id="path3282" />
        </g>
        <g
           id="g3284"
           transform="translate(1766,384.6758)">
          <path
             d="m 0,0 c 0,-11.357 -9.206,-20.563 -20.563,-20.563 -11.356,0 -20.563,9.206 -20.563,20.563 0,11.355 9.207,20.562 20.563,20.562 C -9.206,20.562 0,11.355 0,0"
             style="fill:#ffffff;fill-opacity:1;fill-rule:nonzero;stroke:none"
             id="path3286" />
        </g>
        <g
           id="g3288"
           transform="translate(1584.1826,386.0322)">
          <path
             d="m 0,0 h -3.247 v -10.945 h -3.76 V 0 h -2.068 v 1.817 l 2.068,1.002 v 1.014 c 0,1.565 0.387,2.716 1.159,3.437 0.773,0.719 2.006,1.084 3.707,1.084 1.295,0 2.444,-0.188 3.458,-0.574 L 0.355,5.013 c -0.751,0.24 -1.451,0.365 -2.088,0.365 -0.543,0 -0.918,-0.166 -1.16,-0.48 C -3.132,4.585 -3.247,4.178 -3.247,3.687 V 2.819 H 0 Z"
             style="fill:#668e19;fill-opacity:1;fill-rule:nonzero;stroke:none"
             id="path3290" />
        </g>
        <g
           id="g3292"
           transform="translate(1631.5859,382.0225)">
          <path
             d="M 0,0 C 0.753,0 1.285,0.208 1.608,0.636 1.933,1.074 2.1,1.765 2.1,2.725 V 3.07 c 0,1.085 -0.178,1.869 -0.512,2.35 -0.335,0.479 -0.877,0.721 -1.63,0.721 -1.315,0 -1.963,-1.035 -1.963,-3.092 0,-1.024 0.157,-1.786 0.49,-2.298 C -1.19,0.25 -0.688,0 0,0 M 4.7,-2.017 C 4.7,-3.489 4.272,-4.606 3.416,-5.358 2.56,-6.121 1.285,-6.497 -0.406,-6.497 c -1.494,0 -2.768,0.199 -3.823,0.606 v 2.225 c 1.243,-0.522 2.569,-0.784 3.99,-0.784 1.43,0 2.14,0.773 2.14,2.318 v 0.199 L 1.985,-0.68 H 1.901 c -0.648,-1.003 -1.619,-1.504 -2.892,-1.504 -1.223,0 -2.172,0.47 -2.852,1.411 -0.668,0.95 -1.003,2.235 -1.003,3.852 0,1.683 0.346,2.987 1.045,3.918 0.699,0.94 1.661,1.409 2.882,1.409 1.254,0 2.235,-0.501 2.956,-1.504 H 2.11 L 2.34,8.207 H 4.7 Z"
             style="fill:#668e19;fill-opacity:1;fill-rule:nonzero;stroke:none"
             id="path3294" />
        </g>
        <g
           id="g3296"
           transform="translate(1642.0713,385.6143)">
          <path
             d="M 0,0 H -3.529 V 1.994 H 0 V 5.556 H 2.006 V 1.994 h 3.53 V 0 H 2.006 V -3.52 H 0 Z"
             style="fill:#668e19;fill-opacity:1;fill-rule:nonzero;stroke:none"
             id="path3298" />
        </g>
        <path
           d="m 1685.643,378.522 h -2.788 v 10.215 h 2.788 z m -2.903,12.858 c 0,0.897 0.5,1.356 1.515,1.356 1.013,0 1.514,-0.459 1.514,-1.356 0,-0.44 -0.126,-0.774 -0.376,-1.014 -0.25,-0.24 -0.638,-0.365 -1.138,-0.365 -1.015,0 -1.515,0.459 -1.515,1.379"
           style="fill:#668e19;fill-opacity:1;fill-rule:nonzero;stroke:none"
           id="path3300" />
        <g
           id="g3302"
           transform="translate(1697.9873,378.5225)">
          <path
             d="m 0,0 h -2.777 v 5.964 c 0,0.742 -0.136,1.284 -0.397,1.66 -0.263,0.366 -0.68,0.555 -1.254,0.555 -0.773,0 -1.337,-0.263 -1.691,-0.784 -0.346,-0.522 -0.513,-1.39 -0.513,-2.59 V 0 H -9.42 v 10.215 h 2.131 l 0.365,-1.306 h 0.156 c 0.314,0.49 0.743,0.867 1.285,1.117 0.544,0.251 1.17,0.376 1.86,0.376 1.189,0 2.088,-0.323 2.704,-0.961 C -0.303,8.794 0,7.865 0,6.653 Z"
             style="fill:#668e19;fill-opacity:1;fill-rule:nonzero;stroke:none"
             id="path3304" />
        </g>
        <g
           id="g3306"
           transform="translate(1735.1143,381.0186)">
          <path
             d="m 0,0 h -1.785 v 6.936 h -2.287 v 1.482 h 6.36 V 6.936 H 0 Z"
             style="fill:#668e19;fill-opacity:1;fill-rule:nonzero;stroke:none"
             id="path3308" />
        </g>
        <g
           id="g3310"
           transform="translate(1742.833,381.0186)">
          <path
             d="m 0,0 -0.23,0.826 h -0.094 c -0.189,-0.304 -0.459,-0.533 -0.805,-0.7 -0.344,-0.156 -0.74,-0.24 -1.179,-0.24 -0.752,0 -1.327,0.198 -1.713,0.605 -0.375,0.407 -0.575,0.992 -0.575,1.744 v 4.2 h 1.755 V 2.674 c 0,-0.46 0.084,-0.815 0.25,-1.044 0.167,-0.23 0.429,-0.345 0.794,-0.345 0.491,0 0.846,0.157 1.066,0.49 0.218,0.325 0.324,0.878 0.324,1.63 v 3.03 H 1.357 V 0 Z"
             style="fill:#668e19;fill-opacity:1;fill-rule:nonzero;stroke:none"
             id="path3312" />
        </g>
        <g
           id="g3314"
           transform="translate(1749.0459,386.168)">
          <path
             d="m 0,0 c -0.428,0 -0.751,-0.126 -0.949,-0.397 -0.199,-0.261 -0.303,-0.71 -0.314,-1.316 v -0.199 c 0,-0.689 0.104,-1.18 0.314,-1.483 0.198,-0.301 0.532,-0.448 0.97,-0.448 0.367,0 0.648,0.166 0.868,0.501 0.209,0.323 0.313,0.814 0.313,1.441 0,0.637 -0.104,1.118 -0.324,1.43 C 0.669,-0.157 0.377,0 0,0 m 0.565,1.41 c 0.762,0 1.357,-0.292 1.786,-0.888 0.427,-0.595 0.647,-1.41 0.647,-2.444 0,-1.064 -0.22,-1.891 -0.669,-2.465 -0.438,-0.585 -1.043,-0.877 -1.806,-0.877 -0.762,0 -1.358,0.272 -1.786,0.826 H -1.378 L -1.67,-5.149 h -1.348 v 8.961 h 1.755 V 1.724 c 0,-0.262 -0.021,-0.691 -0.062,-1.265 h 0.062 c 0.417,0.638 1.024,0.951 1.828,0.951"
             style="fill:#668e19;fill-opacity:1;fill-rule:nonzero;stroke:none"
             id="path3316" />
        </g>
        <g
           id="g3318"
           transform="translate(1756.1592,386.3242)">
          <path
             d="m 0,0 c -0.366,0 -0.658,-0.114 -0.867,-0.354 -0.22,-0.231 -0.334,-0.565 -0.365,-1.003 H 1.231 C 1.221,-0.919 1.106,-0.585 0.888,-0.354 0.668,-0.114 0.375,0 0,0 m 0.25,-5.42 c -1.034,0 -1.848,0.281 -2.433,0.856 -0.585,0.575 -0.867,1.379 -0.867,2.434 0,1.075 0.261,1.911 0.804,2.496 0.543,0.596 1.284,0.888 2.235,0.888 0.909,0 1.619,-0.262 2.13,-0.774 0.502,-0.522 0.763,-1.243 0.763,-2.15 v -0.857 h -4.156 c 0.02,-0.501 0.167,-0.887 0.439,-1.17 0.281,-0.282 0.668,-0.418 1.169,-0.418 0.387,0 0.751,0.042 1.097,0.126 0.344,0.073 0.71,0.209 1.086,0.376 V -4.971 C 2.214,-5.117 1.88,-5.232 1.534,-5.316 1.18,-5.389 0.752,-5.42 0.25,-5.42"
             style="fill:#668e19;fill-opacity:1;fill-rule:nonzero;stroke:none"
             id="path3320" />
        </g>
      </g>
    </g>
  </g>
</svg>
